<svg width="19" height="19" viewBox="0 0 19 19" fill="none" xmlns="http://www.w3.org/2000/svg">
<path d="M5.66772 14.0527V15.6855" stroke="#6D737A" stroke-width="1.08848" stroke-linecap="round" stroke-linejoin="round"/>
<path d="M13.2871 14.0527V15.6855" stroke="#6D737A" stroke-width="1.08848" stroke-linecap="round" stroke-linejoin="round"/>
<path d="M4.5791 8.06565V4.52808C4.5791 4.16723 4.72245 3.82115 4.97761 3.56599C5.23278 3.31083 5.57885 3.16748 5.9397 3.16748C6.30056 3.16748 6.64663 3.31083 6.9018 3.56599C7.15696 3.82115 7.30031 4.16723 7.30031 4.52808" stroke="#6D737A" stroke-width="1.08848" stroke-linecap="round" stroke-linejoin="round"/>
<path d="M14.3757 7.52148H10.0217V10.7869H14.3757V7.52148Z" stroke="#6D737A" stroke-width="1.08848" stroke-linecap="round" stroke-linejoin="round"/>
<path d="M14.3755 8.06592H16.5524C16.6968 8.06592 16.8352 8.12326 16.9373 8.22532C17.0393 8.32739 17.0967 8.46582 17.0967 8.61016V10.7871C17.0967 11.6532 16.7526 12.4838 16.1402 13.0961C15.5278 13.7085 14.6973 14.0526 13.8312 14.0526H5.12336C4.25731 14.0526 3.42673 13.7085 2.81434 13.0961C2.20195 12.4838 1.85791 11.6532 1.85791 10.7871V8.61016C1.85791 8.46582 1.91525 8.32739 2.01731 8.22532C2.11938 8.12326 2.25781 8.06592 2.40215 8.06592H10.0215" stroke="#6D737A" stroke-width="1.08848" stroke-linecap="round" stroke-linejoin="round"/>
</svg>
