<svg width="19" height="19" viewBox="0 0 19 19" fill="none" xmlns="http://www.w3.org/2000/svg">
<path d="M5.66772 14.0435V15.6762" stroke="#6D737A" stroke-width="1.08848" stroke-linecap="round" stroke-linejoin="round"/>
<path d="M13.2871 14.0435V15.6762" stroke="#6D737A" stroke-width="1.08848" stroke-linecap="round" stroke-linejoin="round"/>
<path d="M4.5791 8.05637V4.51881C4.5791 4.15795 4.72245 3.81188 4.97761 3.55671C5.23278 3.30155 5.57885 3.1582 5.9397 3.1582C6.30056 3.1582 6.64663 3.30155 6.9018 3.55671C7.15696 3.81188 7.30031 4.15795 7.30031 4.51881" stroke="#6D737A" stroke-width="1.08848" stroke-linecap="round" stroke-linejoin="round"/>
<path d="M14.3757 7.51221H10.0217V10.7777H14.3757V7.51221Z" stroke="#6D737A" stroke-width="1.08848" stroke-linecap="round" stroke-linejoin="round"/>
<path d="M14.3755 8.05664H16.5524C16.6968 8.05664 16.8352 8.11398 16.9373 8.21605C17.0393 8.31811 17.0967 8.45654 17.0967 8.60088V10.7778C17.0967 11.6439 16.7526 12.4745 16.1402 13.0869C15.5278 13.6993 14.6973 14.0433 13.8312 14.0433H5.12336C4.25731 14.0433 3.42673 13.6993 2.81434 13.0869C2.20195 12.4745 1.85791 11.6439 1.85791 10.7778V8.60088C1.85791 8.45654 1.91525 8.31811 2.01731 8.21605C2.11938 8.11398 2.25781 8.05664 2.40215 8.05664H10.0215" stroke="#6D737A" stroke-width="1.08848" stroke-linecap="round" stroke-linejoin="round"/>
</svg>
