<svg width="19" height="19" viewBox="0 0 19 19" fill="none" xmlns="http://www.w3.org/2000/svg">
<path d="M5.66785 14.0435V15.6762" stroke="#6D737A" stroke-width="1.08848" stroke-linecap="round" stroke-linejoin="round"/>
<path d="M13.2872 14.0435V15.6762" stroke="#6D737A" stroke-width="1.08848" stroke-linecap="round" stroke-linejoin="round"/>
<path d="M4.57935 8.05637V4.51881C4.57935 4.15795 4.72269 3.81188 4.97786 3.55671C5.23302 3.30155 5.57909 3.1582 5.93995 3.1582C6.3008 3.1582 6.64688 3.30155 6.90204 3.55671C7.1572 3.81188 7.30055 4.15795 7.30055 4.51881" stroke="#6D737A" stroke-width="1.08848" stroke-linecap="round" stroke-linejoin="round"/>
<path d="M14.3757 7.51221H10.0217V10.7777H14.3757V7.51221Z" stroke="#6D737A" stroke-width="1.08848" stroke-linecap="round" stroke-linejoin="round"/>
<path d="M14.3757 8.05664H16.5527C16.697 8.05664 16.8354 8.11398 16.9375 8.21605C17.0396 8.31811 17.0969 8.45654 17.0969 8.60088V10.7778C17.0969 11.6439 16.7529 12.4745 16.1405 13.0869C15.5281 13.6993 14.6975 14.0433 13.8315 14.0433H5.1236C4.25755 14.0433 3.42697 13.6993 2.81458 13.0869C2.20219 12.4745 1.85815 11.6439 1.85815 10.7778V8.60088C1.85815 8.45654 1.91549 8.31811 2.01756 8.21605C2.11962 8.11398 2.25805 8.05664 2.4024 8.05664H10.0218" stroke="#6D737A" stroke-width="1.08848" stroke-linecap="round" stroke-linejoin="round"/>
</svg>
