<svg width="18" height="19" viewBox="0 0 18 19" fill="none" xmlns="http://www.w3.org/2000/svg">
<path d="M1.08838 9.14502H16.3271" stroke="#6D737A" stroke-width="1.08848" stroke-linecap="round" stroke-linejoin="round"/>
<path d="M15.2388 13.499V15.1317C15.2388 15.2761 15.1814 15.4145 15.0794 15.5166C14.9773 15.6186 14.8389 15.676 14.6945 15.676H13.0618C12.9175 15.676 12.779 15.6186 12.677 15.5166C12.5749 15.4145 12.5176 15.2761 12.5176 15.1317V13.499" stroke="#6D737A" stroke-width="1.08848" stroke-linecap="round" stroke-linejoin="round"/>
<path d="M4.89821 13.499V15.1317C4.89821 15.2761 4.84087 15.4145 4.7388 15.5166C4.63674 15.6186 4.49831 15.676 4.35397 15.676H2.72124C2.5769 15.676 2.43847 15.6186 2.33641 15.5166C2.23434 15.4145 2.177 15.2761 2.177 15.1317V13.499" stroke="#6D737A" stroke-width="1.08848" stroke-linecap="round" stroke-linejoin="round"/>
<path d="M4.354 11.3223H5.44249" stroke="#6D737A" stroke-width="1.08848" stroke-linecap="round" stroke-linejoin="round"/>
<path d="M11.9734 11.3223H13.0619" stroke="#6D737A" stroke-width="1.08848" stroke-linecap="round" stroke-linejoin="round"/>
<path d="M15.2388 9.14524L13.2047 4.57362C13.1625 4.4769 13.0931 4.39454 13.0049 4.33656C12.9167 4.27859 12.8136 4.24749 12.7081 4.24707H4.70772C4.6022 4.24749 4.49907 4.27859 4.4109 4.33656C4.32273 4.39454 4.25331 4.4769 4.2111 4.57362L2.177 9.14524V13.4992H15.2388V9.14524Z" stroke="#6D737A" stroke-width="1.08848" stroke-linecap="round" stroke-linejoin="round"/>
</svg>
