<svg width="16" height="16" viewBox="0 0 16 16" fill="none" xmlns="http://www.w3.org/2000/svg">
<path d="M7.81469 13.1736C7.81469 13.1736 2.14551 9.99882 2.14551 6.14378C2.14551 5.46228 2.38163 4.80183 2.81369 4.2748C3.24575 3.74776 3.84707 3.38671 4.51534 3.25305C5.1836 3.1194 5.87753 3.22141 6.47907 3.54172C7.0806 3.86203 7.55257 4.38087 7.81469 5.00994V5.00994C8.0768 4.38087 8.54878 3.86203 9.15031 3.54172C9.75184 3.22141 10.4458 3.1194 11.114 3.25305C11.7823 3.38671 12.3836 3.74776 12.8157 4.2748C13.2477 4.80183 13.4839 5.46228 13.4839 6.14378C13.4839 9.99882 7.81469 13.1736 7.81469 13.1736Z" stroke="#4A60A1" stroke-width="0.936687" stroke-linecap="round" stroke-linejoin="round"/>
</svg>
