<svg width="16" height="16" viewBox="0 0 16 16" fill="none" xmlns="http://www.w3.org/2000/svg">
<path d="M7.81444 13.1828C7.81444 13.1828 2.14526 10.0081 2.14526 6.15306C2.14526 5.47156 2.38138 4.81111 2.81345 4.28407C3.24551 3.75704 3.84683 3.39598 4.51509 3.26233C5.18336 3.12868 5.87729 3.23069 6.47882 3.551C7.08035 3.87131 7.55233 4.39014 7.81444 5.01922V5.01922C8.07656 4.39014 8.54853 3.87131 9.15007 3.551C9.7516 3.23069 10.4455 3.12868 11.1138 3.26233C11.7821 3.39598 12.3834 3.75704 12.8154 4.28407C13.2475 4.81111 13.4836 5.47156 13.4836 6.15306C13.4836 10.0081 7.81444 13.1828 7.81444 13.1828Z" stroke="#4A60A1" stroke-width="0.936687" stroke-linecap="round" stroke-linejoin="round"/>
</svg>
