<svg width="44" height="45" viewBox="0 0 44 45" fill="none" xmlns="http://www.w3.org/2000/svg">
<path d="M37.125 38.0974V20.824C37.1219 20.6337 37.0808 20.4459 37.0041 20.2718C36.9273 20.0976 36.8165 19.9406 36.6781 19.8099L22.9281 7.3146C22.6746 7.08271 22.3435 6.9541 22 6.9541C21.6565 6.9541 21.3254 7.08271 21.0719 7.3146L7.32187 19.8099C7.18351 19.9406 7.07269 20.0976 6.99595 20.2718C6.9192 20.4459 6.87808 20.6337 6.875 20.824V38.0974" stroke="#4A60A1" stroke-width="2.75" stroke-linecap="round" stroke-linejoin="round"/>
<path d="M2.75 38.0967H41.25" stroke="#4A60A1" stroke-width="2.75" stroke-linecap="round" stroke-linejoin="round"/>
<path d="M26.125 38.0967V28.4717C26.125 28.107 25.9801 27.7573 25.7223 27.4994C25.4644 27.2415 25.1147 27.0967 24.75 27.0967H19.25C18.8853 27.0967 18.5356 27.2415 18.2777 27.4994C18.0199 27.7573 17.875 28.107 17.875 28.4717V38.0967" stroke="#4A60A1" stroke-width="2.75" stroke-linecap="round" stroke-linejoin="round"/>
</svg>
