<svg width="78" height="79" viewBox="0 0 78 79" fill="none" xmlns="http://www.w3.org/2000/svg">
<path d="M68.8087 39.2281H68.7869C68.4912 39.2281 68.2064 39.1157 67.9906 38.9161L55.7391 27.5572C55.2639 27.1164 55.2367 26.3745 55.6757 25.901C56.1164 25.4258 56.8584 25.3986 57.3318 25.8375L69.4581 37.0786C69.7737 37.289 69.9805 37.6482 69.9805 38.0545C69.9805 38.7039 69.4563 39.2281 68.8087 39.2281ZM45.2563 17.4153C44.9715 17.4153 44.6849 17.312 44.46 17.1033C40.9536 13.8546 38.4903 11.569 38.4903 11.569C38.1728 11.2751 38.044 10.8307 38.1529 10.4117C38.2617 9.99265 38.5937 9.66977 39.0145 9.56818L39.234 9.51558C39.858 9.36684 40.4856 9.74777 40.6434 10.3681C41.5613 11.2189 43.5403 13.0546 46.0544 15.3837C46.5297 15.8245 46.5569 16.5664 46.1179 17.0399C45.8857 17.2884 45.5719 17.4153 45.2563 17.4153Z" fill="#4A60A1"/>
<path d="M62.9297 70.4613C62.3238 70.4613 61.8105 69.9951 61.7615 69.382C61.7416 69.1281 61.8032 68.8868 61.9248 68.6855V38.0478C61.9248 37.4002 62.449 36.876 63.0966 36.876C63.7442 36.876 64.2684 37.4002 64.2684 38.0478V69.2768C64.2684 69.8881 63.7986 70.396 63.1891 70.445L63.0222 70.4577C62.9914 70.4595 62.9605 70.4613 62.9297 70.4613Z" fill="#4A60A1"/>
<path d="M57.6602 26.4016C57.0144 26.4016 56.4884 25.8792 56.4884 25.2316L56.4666 14.8975C55.9714 14.7524 55.6159 14.2917 55.6249 13.7511C55.6376 13.1035 56.1764 12.5829 56.8185 12.601L57.6584 12.6156C58.2969 12.6264 58.8084 13.147 58.8084 13.7856L58.832 25.2262C58.8338 25.8737 58.3096 26.3998 57.662 26.4016C57.662 26.4016 57.662 26.4016 57.6602 26.4016Z" fill="#4A60A1"/>
<path d="M56.1821 27.1573C56.1821 27.943 56.8183 28.5791 57.6039 28.5791C58.3891 28.5791 59.0275 27.9435 59.0275 27.1573V13.6415C59.0275 12.8559 58.3914 12.2197 57.6057 12.2197H49.0547C48.2691 12.2197 47.6329 12.8559 47.6329 13.6415V19.1832C47.6329 19.9688 48.2691 20.605 49.0547 20.605C49.8404 20.605 50.4766 19.9688 50.4766 19.1832V15.0634H56.1821V27.1573Z" fill="#1E2640" stroke="#1E2640" stroke-width="0.5"/>
<path d="M8.23174 37.0061L8.2315 37.0063C7.65324 37.5362 7.61072 38.4362 8.14171 39.0157C8.42145 39.3217 8.8068 39.4777 9.19129 39.4777C9.53429 39.4777 9.87793 39.3544 10.1506 39.1059L10.1508 39.1057L39.1058 12.6394L67.6465 39.099L67.6468 39.0993C68.2231 39.6316 69.1211 39.5988 69.6559 39.0222L69.6559 39.0222C70.1888 38.4475 70.1556 37.5474 69.5791 37.0128L69.5791 37.0127L40.0791 9.66411C39.5372 9.15959 38.6984 9.15779 38.1528 9.65724L8.23174 37.0061Z" fill="#4A60A1" stroke="#4A60A1" stroke-width="0.5"/>
<path d="M14.8073 70.7081H63.1074L64.2775 69.2845H64.5275V69.2838V34.7286C64.5275 33.943 63.8913 33.3068 63.1056 33.3068C62.32 33.3068 61.6838 33.943 61.6838 34.7286V67.8627H16.2291V33.6747C16.2291 32.8891 15.593 32.2529 14.8073 32.2529C14.0217 32.2529 13.3855 32.8891 13.3855 33.6747V69.2863C13.3855 70.0719 14.0217 70.7081 14.8073 70.7081Z" fill="#4A60A1" stroke="#4A60A1" stroke-width="0.5"/>
<path d="M37.875 52.7217C42.2242 52.7217 45.75 49.1959 45.75 44.8467C45.75 40.4974 42.2242 36.9717 37.875 36.9717C33.5258 36.9717 30 40.4974 30 44.8467C30 49.1959 33.5258 52.7217 37.875 52.7217Z" stroke="#1E2640" stroke-width="2" stroke-linecap="round" stroke-linejoin="round"/>
<path d="M43.4437 50.415L48 54.9713" stroke="#1E2640" stroke-width="2" stroke-linecap="round" stroke-linejoin="round"/>
</svg>
