<svg width="78" height="79" viewBox="0 0 78 79" fill="none" xmlns="http://www.w3.org/2000/svg">
<path d="M68.8086 39.2281H68.7868C68.4911 39.2281 68.2063 39.1157 67.9905 38.9161L55.739 27.5572C55.2638 27.1164 55.2366 26.3745 55.6755 25.901C56.1163 25.4258 56.8582 25.3986 57.3317 25.8375L69.458 37.0786C69.7736 37.289 69.9804 37.6482 69.9804 38.0545C69.9804 38.7039 69.4561 39.2281 68.8086 39.2281ZM45.2562 17.4153C44.9714 17.4153 44.6848 17.312 44.4599 17.1033C40.9535 13.8546 38.4901 11.569 38.4901 11.569C38.1727 11.2751 38.0439 10.8307 38.1527 10.4117C38.2616 9.99265 38.5935 9.66977 39.0144 9.56818L39.2339 9.51558C39.8579 9.36684 40.4855 9.74777 40.6433 10.3681C41.5612 11.2189 43.5402 13.0546 46.0543 15.3837C46.5296 15.8245 46.5568 16.5664 46.1178 17.0399C45.8856 17.2884 45.5718 17.4153 45.2562 17.4153Z" fill="#4A60A1"/>
<path d="M62.9297 70.4613C62.3238 70.4613 61.8105 69.9951 61.7615 69.382C61.7416 69.1281 61.8032 68.8868 61.9248 68.6855V38.0478C61.9248 37.4002 62.449 36.876 63.0966 36.876C63.7442 36.876 64.2684 37.4002 64.2684 38.0478V69.2768C64.2684 69.8881 63.7986 70.396 63.1891 70.445L63.0222 70.4577C62.9914 70.4595 62.9605 70.4613 62.9297 70.4613Z" fill="#4A60A1"/>
<path d="M57.6599 26.4016C57.0142 26.4016 56.4881 25.8792 56.4881 25.2316L56.4664 14.8975C55.9711 14.7524 55.6156 14.2917 55.6247 13.7511C55.6374 13.1035 56.1761 12.5829 56.8183 12.601L57.6581 12.6156C58.2966 12.6264 58.8082 13.147 58.8082 13.7856L58.8317 25.2262C58.8336 25.8737 58.3093 26.3998 57.6618 26.4016C57.6618 26.4016 57.6618 26.4016 57.6599 26.4016Z" fill="#4A60A1"/>
<path d="M56.182 27.1573C56.182 27.943 56.8181 28.5791 57.6038 28.5791C58.3889 28.5791 59.0274 27.9435 59.0274 27.1573V13.6415C59.0274 12.8559 58.3913 12.2197 57.6056 12.2197H49.0546C48.269 12.2197 47.6328 12.8559 47.6328 13.6415V19.1832C47.6328 19.9688 48.269 20.605 49.0546 20.605C49.8403 20.605 50.4764 19.9688 50.4764 19.1832V15.0634H56.182V27.1573Z" fill="#1E2640" stroke="#1E2640" stroke-width="0.5"/>
<path d="M8.23161 37.0061L8.23138 37.0063C7.65312 37.5362 7.6106 38.4362 8.14159 39.0157C8.42133 39.3217 8.80667 39.4777 9.19116 39.4777C9.53416 39.4777 9.87781 39.3544 10.1504 39.1059L10.1507 39.1057L39.1057 12.6394L67.6464 39.099L67.6467 39.0993C68.223 39.6316 69.121 39.5988 69.6558 39.0222L69.6558 39.0222C70.1887 38.4475 70.1554 37.5474 69.579 37.0128L69.5789 37.0127L40.079 9.66411C39.537 9.15959 38.6983 9.15779 38.1526 9.65724L8.23161 37.0061Z" fill="#4A60A1" stroke="#4A60A1" stroke-width="0.5"/>
<path d="M14.8071 70.7081H63.1072L64.2772 69.2845H64.5272V69.2838V34.7286C64.5272 33.943 63.8911 33.3068 63.1054 33.3068C62.3197 33.3068 61.6836 33.943 61.6836 34.7286V67.8627H16.2289V33.6747C16.2289 32.8891 15.5927 32.2529 14.8071 32.2529C14.0214 32.2529 13.3853 32.8891 13.3853 33.6747V69.2863C13.3853 70.0719 14.0214 70.7081 14.8071 70.7081Z" fill="#4A60A1" stroke="#4A60A1" stroke-width="0.5"/>
<path d="M35.7375 44.4842C35.4124 43.6866 35.2468 42.833 35.25 41.9717C35.25 40.6367 35.6459 39.3316 36.3876 38.2216C37.1293 37.1116 38.1835 36.2464 39.4169 35.7355C40.6503 35.2246 42.0075 35.0909 43.3169 35.3514C44.6262 35.6118 45.829 36.2547 46.773 37.1987C47.717 38.1427 48.3599 39.3455 48.6203 40.6548C48.8808 41.9642 48.7471 43.3214 48.2362 44.5548C47.7253 45.7882 46.8601 46.8424 45.7501 47.5841C44.6401 48.3258 43.335 48.7217 42 48.7217C41.1387 48.7249 40.2851 48.5593 39.4875 48.2342V48.2342L38.25 49.4717H36V51.7217H33.75V53.9717H30V50.2217L35.7375 44.4842Z" stroke="#1E2640" stroke-width="1.5" stroke-linecap="round" stroke-linejoin="round"/>
<path d="M43.875 41.2217C44.4963 41.2217 45 40.718 45 40.0967C45 39.4754 44.4963 38.9717 43.875 38.9717C43.2537 38.9717 42.75 39.4754 42.75 40.0967C42.75 40.718 43.2537 41.2217 43.875 41.2217Z" fill="#1E2640"/>
</svg>
