<svg width="24" height="25" viewBox="0 0 24 25" fill="none" xmlns="http://www.w3.org/2000/svg">
<path d="M12 13.7222C13.6569 13.7222 15 12.379 15 10.7222C15 9.06531 13.6569 7.72217 12 7.72217C10.3431 7.72217 9 9.06531 9 10.7222C9 12.379 10.3431 13.7222 12 13.7222Z" stroke="white" stroke-width="1.5" stroke-linecap="round" stroke-linejoin="round"/>
<path d="M19.5 10.7222C19.5 17.4722 12 22.7222 12 22.7222C12 22.7222 4.5 17.4722 4.5 10.7222C4.5 8.73304 5.29018 6.82539 6.6967 5.41887C8.10322 4.01234 10.0109 3.22217 12 3.22217C13.9891 3.22217 15.8968 4.01234 17.3033 5.41887C18.7098 6.82539 19.5 8.73304 19.5 10.7222V10.7222Z" stroke="white" stroke-width="1.5" stroke-linecap="round" stroke-linejoin="round"/>
</svg>
