<svg width="16" height="16" viewBox="0 0 16 16" fill="none" xmlns="http://www.w3.org/2000/svg">
<path d="M4.16008 9.99888C5.16201 9.99888 5.97422 9.18666 5.97422 8.18474C5.97422 7.18282 5.16201 6.37061 4.16008 6.37061C3.15816 6.37061 2.34595 7.18282 2.34595 8.18474C2.34595 9.18666 3.15816 9.99888 4.16008 9.99888Z" stroke="#4A60A1" stroke-width="0.936687" stroke-linecap="round" stroke-linejoin="round"/>
<path d="M10.5097 14.0809C11.5116 14.0809 12.3238 13.2687 12.3238 12.2668C12.3238 11.2649 11.5116 10.4526 10.5097 10.4526C9.50777 10.4526 8.69556 11.2649 8.69556 12.2668C8.69556 13.2687 9.50777 14.0809 10.5097 14.0809Z" stroke="#4A60A1" stroke-width="0.936687" stroke-linecap="round" stroke-linejoin="round"/>
<path d="M10.5097 5.91685C11.5116 5.91685 12.3238 5.10463 12.3238 4.10271C12.3238 3.10079 11.5116 2.28857 10.5097 2.28857C9.50777 2.28857 8.69556 3.10079 8.69556 4.10271C8.69556 5.10463 9.50777 5.91685 10.5097 5.91685Z" stroke="#4A60A1" stroke-width="0.936687" stroke-linecap="round" stroke-linejoin="round"/>
<path d="M8.98477 5.08398L5.6853 7.20426" stroke="#4A60A1" stroke-width="0.936687" stroke-linecap="round" stroke-linejoin="round"/>
<path d="M5.6853 9.16553L8.98477 11.2858" stroke="#4A60A1" stroke-width="0.936687" stroke-linecap="round" stroke-linejoin="round"/>
</svg>
