<svg width="16" height="16" viewBox="0 0 16 16" fill="none" xmlns="http://www.w3.org/2000/svg">
<path d="M4.15984 10.0174C5.16176 10.0174 5.97398 9.20522 5.97398 8.2033C5.97398 7.20138 5.16176 6.38916 4.15984 6.38916C3.15792 6.38916 2.3457 7.20138 2.3457 8.2033C2.3457 9.20522 3.15792 10.0174 4.15984 10.0174Z" stroke="#4A60A1" stroke-width="0.936687" stroke-linecap="round" stroke-linejoin="round"/>
<path d="M10.5095 14.0995C11.5114 14.0995 12.3236 13.2872 12.3236 12.2853C12.3236 11.2834 11.5114 10.4712 10.5095 10.4712C9.50753 10.4712 8.69531 11.2834 8.69531 12.2853C8.69531 13.2872 9.50753 14.0995 10.5095 14.0995Z" stroke="#4A60A1" stroke-width="0.936687" stroke-linecap="round" stroke-linejoin="round"/>
<path d="M10.5095 5.9354C11.5114 5.9354 12.3236 5.12319 12.3236 4.12127C12.3236 3.11935 11.5114 2.30713 10.5095 2.30713C9.50753 2.30713 8.69531 3.11935 8.69531 4.12127C8.69531 5.12319 9.50753 5.9354 10.5095 5.9354Z" stroke="#4A60A1" stroke-width="0.936687" stroke-linecap="round" stroke-linejoin="round"/>
<path d="M8.98452 5.10254L5.68506 7.22281" stroke="#4A60A1" stroke-width="0.936687" stroke-linecap="round" stroke-linejoin="round"/>
<path d="M5.68506 9.18408L8.98452 11.3044" stroke="#4A60A1" stroke-width="0.936687" stroke-linecap="round" stroke-linejoin="round"/>
</svg>
