<svg width="16" height="16" viewBox="0 0 16 16" fill="none" xmlns="http://www.w3.org/2000/svg">
<path d="M4.15984 10.0082C5.16176 10.0082 5.97398 9.19594 5.97398 8.19402C5.97398 7.1921 5.16176 6.37988 4.15984 6.37988C3.15792 6.37988 2.3457 7.1921 2.3457 8.19402C2.3457 9.19594 3.15792 10.0082 4.15984 10.0082Z" stroke="#4A60A1" stroke-width="0.936687" stroke-linecap="round" stroke-linejoin="round"/>
<path d="M10.5095 14.0902C11.5114 14.0902 12.3236 13.278 12.3236 12.2761C12.3236 11.2741 11.5114 10.4619 10.5095 10.4619C9.50753 10.4619 8.69531 11.2741 8.69531 12.2761C8.69531 13.278 9.50753 14.0902 10.5095 14.0902Z" stroke="#4A60A1" stroke-width="0.936687" stroke-linecap="round" stroke-linejoin="round"/>
<path d="M10.5095 5.92613C11.5114 5.92613 12.3236 5.11391 12.3236 4.11199C12.3236 3.11007 11.5114 2.29785 10.5095 2.29785C9.50753 2.29785 8.69531 3.11007 8.69531 4.11199C8.69531 5.11391 9.50753 5.92613 10.5095 5.92613Z" stroke="#4A60A1" stroke-width="0.936687" stroke-linecap="round" stroke-linejoin="round"/>
<path d="M8.98452 5.09326L5.68506 7.21353" stroke="#4A60A1" stroke-width="0.936687" stroke-linecap="round" stroke-linejoin="round"/>
<path d="M5.68506 9.1748L8.98452 11.2951" stroke="#4A60A1" stroke-width="0.936687" stroke-linecap="round" stroke-linejoin="round"/>
</svg>
