<svg width="20" height="21" viewBox="0 0 20 21" fill="none" xmlns="http://www.w3.org/2000/svg">
<path d="M8.07031 9.89357C8.07031 9.89357 9.96264 9.75491 9.96264 7.56461C9.96264 5.37416 8.41448 4.30518 6.4534 4.30518H0.000244141V16.5457H6.4534C6.4534 16.5457 10.3928 16.6686 10.3928 12.9329C10.3928 12.9329 10.5646 9.89357 8.07031 9.89357ZM5.9889 6.4808H6.4534C6.4534 6.4808 7.33057 6.4808 7.33057 7.75437C7.33057 9.0278 6.8147 9.21242 6.22956 9.21242H2.84359V6.4808H5.9889ZM6.27104 14.3702H2.84359V11.0991H6.4534C6.4534 11.0991 7.76078 11.0821 7.76078 12.7801C7.76078 14.2118 6.78429 14.3594 6.27104 14.3702ZM15.6467 7.41954C10.8776 7.41954 10.8818 12.1227 10.8818 12.1227C10.8818 12.1227 10.5546 16.8018 15.6467 16.8018C15.6467 16.8018 19.8901 17.0411 19.8901 13.5468H17.7078C17.7078 13.5468 17.7805 14.8627 15.7195 14.8627C15.7195 14.8627 13.5368 15.0071 13.5368 12.7331H19.9628C19.9628 12.7331 20.666 7.41954 15.6467 7.41954ZM13.5129 11.0991C13.5129 11.0991 13.7793 9.21238 15.6952 9.21238C17.6106 9.21238 17.5866 11.0991 17.5866 11.0991H13.5129ZM18.095 6.53364H12.9786V5.0263H18.095V6.53364Z" fill="#4A60A1"/>
</svg>
