<svg width="20" height="21" viewBox="0 0 20 21" fill="none" xmlns="http://www.w3.org/2000/svg">
<g clip-path="url(#clip0_308_2060)">
<path d="M6.66721 10.9717C6.66721 9.13081 8.15913 7.63808 10 7.63808C11.8409 7.63808 13.3336 9.13081 13.3336 10.9717C13.3336 12.8126 11.8409 14.3053 10 14.3053C8.15913 14.3053 6.66721 12.8126 6.66721 10.9717ZM4.86511 10.9717C4.86511 13.8077 7.16397 16.1066 10 16.1066C12.836 16.1066 15.1349 13.8077 15.1349 10.9717C15.1349 8.13565 12.836 5.83678 10 5.83678C7.16397 5.83678 4.86511 8.13565 4.86511 10.9717ZM14.1381 5.63323C14.1381 6.29559 14.6753 6.83355 15.3385 6.83355C16.0008 6.83355 16.5388 6.29559 16.5388 5.63323C16.5388 4.97087 16.0016 4.43372 15.3385 4.43372C14.6753 4.43372 14.1381 4.97087 14.1381 5.63323ZM5.95961 19.1114C4.98465 19.067 4.45477 18.9046 4.10259 18.7673C3.6357 18.5856 3.30291 18.3691 2.95234 18.0193C2.60259 17.6696 2.3853 17.3368 2.20436 16.8699C2.06704 16.5177 1.90469 15.9878 1.86026 15.0129C1.81179 13.9588 1.8021 13.6421 1.8021 10.9717C1.8021 8.30124 1.8126 7.98541 1.86026 6.93048C1.90469 5.95552 2.06785 5.42645 2.20436 5.07346C2.38611 4.60657 2.60259 4.27378 2.95234 3.92321C3.3021 3.57346 3.6349 3.35617 4.10259 3.17523C4.45477 3.03792 4.98465 2.87556 5.95961 2.83113C7.01373 2.78267 7.33037 2.77297 10 2.77297C12.6704 2.77297 12.9863 2.78347 14.0412 2.83113C15.0162 2.87556 15.5452 3.03872 15.8982 3.17523C16.3651 3.35617 16.6979 3.57346 17.0485 3.92321C17.3982 4.27297 17.6147 4.60657 17.7964 5.07346C17.9338 5.42564 18.0961 5.95552 18.1406 6.93048C18.189 7.98541 18.1987 8.30124 18.1987 10.9717C18.1987 13.6413 18.189 13.9579 18.1406 15.0129C18.0961 15.9878 17.933 16.5177 17.7964 16.8699C17.6147 17.3368 17.3982 17.6696 17.0485 18.0193C16.6987 18.3691 16.3651 18.5856 15.8982 18.7673C15.546 18.9046 15.0162 19.067 14.0412 19.1114C12.9871 19.1599 12.6704 19.1696 10 19.1696C7.33037 19.1696 7.01373 19.1599 5.95961 19.1114ZM5.87722 1.03226C4.8126 1.08073 4.08562 1.24955 3.44992 1.49672C2.79241 1.75197 2.23506 2.09446 1.67851 2.65019C1.12278 3.20593 0.780291 3.76328 0.52504 4.4216C0.277868 5.0573 0.109047 5.78428 0.0605816 6.8489C0.0113086 7.91514 0 8.25601 0 10.9717C0 13.6874 0.0113086 14.0282 0.0605816 15.0945C0.109047 16.1591 0.277868 16.8861 0.52504 17.5218C0.780291 18.1793 1.12197 18.7374 1.67851 19.2932C2.23425 19.8489 2.7916 20.1906 3.44992 20.4466C4.08643 20.6938 4.8126 20.8626 5.87722 20.9111C6.94427 20.9596 7.28433 20.9717 10 20.9717C12.7165 20.9717 13.0565 20.9604 14.1228 20.9111C15.1874 20.8626 15.9144 20.6938 16.5501 20.4466C17.2076 20.1906 17.7649 19.8489 18.3215 19.2932C18.8772 18.7374 19.2189 18.1793 19.475 17.5218C19.7221 16.8861 19.8918 16.1591 19.9394 15.0945C19.9879 14.0274 19.9992 13.6874 19.9992 10.9717C19.9992 8.25601 19.9879 7.91514 19.9394 6.8489C19.891 5.78428 19.7221 5.0573 19.475 4.4216C19.2189 3.76409 18.8772 3.20674 18.3215 2.65019C17.7658 2.09446 17.2076 1.75197 16.5509 1.49672C15.9144 1.24955 15.1874 1.07992 14.1236 1.03226C13.0574 0.983796 12.7165 0.97168 10.0008 0.97168C7.28433 0.97168 6.94427 0.982988 5.87722 1.03226Z" fill="#4A60A1"/>
</g>
<defs>
<clipPath id="clip0_308_2060">
<rect width="20" height="20" fill="white" transform="translate(0 0.97168)"/>
</clipPath>
</defs>
</svg>
