<svg width="20" height="21" viewBox="0 0 20 21" fill="none" xmlns="http://www.w3.org/2000/svg">
<g clip-path="url(#clip0_308_2056)">
<path d="M0 10.9717C0 9.15834 0.44668 7.48502 1.34 5.95168C2.23334 4.41834 3.44668 3.20502 4.98 2.31168C6.51334 1.41834 8.18668 0.97168 10 0.97168C11.8133 0.97168 13.4867 1.41834 15.02 2.31168C16.5533 3.20502 17.7667 4.41834 18.66 5.95168C19.5533 7.48502 20 9.15834 20 10.9717C20 12.785 19.5533 14.4583 18.66 15.9917C17.7667 17.525 16.5533 18.7383 15.02 19.6317C13.4867 20.525 11.8133 20.9717 10 20.9717C8.18668 20.9717 6.51334 20.525 4.98 19.6317C3.44668 18.7383 2.23334 17.525 1.34 15.9917C0.44668 14.4583 0 12.785 0 10.9717ZM1.66 10.9717C1.66 13.0517 2.36 14.885 3.76 16.4717C4.4 15.2183 5.41334 14.025 6.8 12.8917C8.18668 11.7583 9.54 11.045 10.86 10.7517C10.66 10.285 10.4667 9.86502 10.28 9.49168C7.98668 10.225 5.50668 10.5917 2.84 10.5917C2.32 10.5917 1.93334 10.585 1.68 10.5717C1.68 10.625 1.67668 10.6917 1.67 10.7717C1.66334 10.8517 1.66 10.9183 1.66 10.9717ZM1.92 8.91168C2.21334 8.93834 2.64668 8.95168 3.22 8.95168C5.44668 8.95168 7.56 8.65168 9.56 8.05168C8.54668 6.25168 7.43334 4.75168 6.22 3.55168C5.16668 4.08502 4.26334 4.82502 3.51 5.77168C2.75668 6.71834 2.22668 7.76502 1.92 8.91168ZM4.9 17.5517C6.40668 18.725 8.10668 19.3117 10 19.3117C10.9867 19.3117 11.9667 19.125 12.94 18.7517C12.6733 16.4717 12.1533 14.265 11.38 12.1317C10.1533 12.3983 8.91668 13.0717 7.67 14.1517C6.42334 15.2317 5.5 16.365 4.9 17.5517ZM7.96 2.91168C9.13334 4.12502 10.22 5.63834 11.22 7.45168C13.0333 6.69168 14.4 5.72502 15.32 4.55168C13.7733 3.27168 12 2.63168 10 2.63168C9.32 2.63168 8.64 2.72502 7.96 2.91168ZM11.94 8.87168C12.14 9.29834 12.3667 9.83834 12.62 10.4917C13.6067 10.3983 14.68 10.3517 15.84 10.3517C16.6667 10.3517 17.4867 10.3717 18.3 10.4117C18.1933 8.59834 17.54 6.98502 16.34 5.57168C15.4733 6.86502 14.0067 7.96502 11.94 8.87168ZM13.12 11.8917C13.8 13.865 14.26 15.8917 14.5 17.9717C15.5533 17.2917 16.4133 16.4183 17.08 15.3517C17.7467 14.285 18.1467 13.1317 18.28 11.8917C17.3067 11.825 16.42 11.7917 15.62 11.7917C14.8867 11.7917 14.0533 11.825 13.12 11.8917Z" fill="#4A60A1"/>
</g>
<defs>
<clipPath id="clip0_308_2056">
<rect width="20" height="20" fill="white" transform="translate(0 0.97168)"/>
</clipPath>
</defs>
</svg>
